<svg xmlns="http://www.w3.org/2000/svg" viewBox="0 0 1329.99 331.5"><defs><style>.cls-1{fill:#fff;}</style></defs><title>Asset 37</title><g id="Layer_2" data-name="Layer 2"><g id="Layer_1-2" data-name="Layer 1"><path class="cls-1" d="M260,40V260H40V40H260M276.61,0H23.39A23.39,23.39,0,0,0,0,23.39V276.61A23.39,23.39,0,0,0,23.39,300H276.61A23.39,23.39,0,0,0,300,276.61V23.39A23.39,23.39,0,0,0,276.61,0Z"/><rect class="cls-1" x="85.63" y="81.63" width="249.75" height="249.75" rx="23.48" ry="23.48"/><path class="cls-1" d="M311.9,81.75a23.38,23.38,0,0,1,23.35,23.35V307.9a23.38,23.38,0,0,1-23.35,23.35H109.1A23.38,23.38,0,0,1,85.75,307.9V105.1A23.38,23.38,0,0,1,109.1,81.75H311.9m0-.25H109.1a23.61,23.61,0,0,0-23.6,23.6V307.9a23.61,23.61,0,0,0,23.6,23.6H311.9a23.61,23.61,0,0,0,23.6-23.6V105.1a23.61,23.61,0,0,0-23.6-23.6Z"/><path class="cls-1" d="M427.5,64.76h42l37,102.27c4.61,13.32,8.84,27.4,13.44,41.09h1.28c4.61-13.69,8.58-27.77,13.19-41.09L570.6,64.76h42V274H578.54V178.3c0-19.33,2.94-47.17,4.74-66.56H582l-16.9,48.64-34.43,94h-22l-34.56-94-16.64-48.64h-1.28C458,131.13,460.9,159,460.9,178.3V274H427.5Z"/><path class="cls-1" d="M641.35,231.8c0-33.66,27.9-51.2,92.42-58.11-.51-16.9-7.3-31-28.55-31-15.61,0-30.33,7-44.16,15.49l-13.57-24.57C664.78,122.75,687.05,113,712,113c39.29,0,58.62,24.19,58.62,68V274H740.42l-2.81-17.4h-1c-14.08,12-30.2,21.24-48.76,21.24C660.29,277.88,641.35,259.2,641.35,231.8Zm92.42.13V196.6C691.14,202,676.94,213.12,676.94,229c0,13.89,9.47,20,22.65,20C712.39,249,722.12,242.68,733.77,231.93Z"/><path class="cls-1" d="M807.46,221.05V146.17h-22.4V118.52l24.32-1.66L813.73,74h30.6v42.88h40.06v29.31H844.33V221c0,18.49,7.16,27.58,22.27,27.58,5.37,0,11.77-1.79,16.38-3.58l6.27,27.13c-8.57,2.82-19.52,5.76-32.13,5.76C820.9,277.88,807.46,255,807.46,221.05Z"/><path class="cls-1" d="M894.79,195.58c0-52.35,37-82.56,78.85-82.56,20,0,34.56,7.68,46,17.66l-17.92,23.94c-8.32-7.3-16.26-11.52-26.11-11.52-25.35,0-42.89,21-42.89,52.48S950,247.8,974.4,247.8c12.29,0,23.56-6,32.52-13.56l15,24.32a77.63,77.63,0,0,1-51.33,19.32C927.68,277.88,894.79,247.68,894.79,195.58Z"/><path class="cls-1" d="M1043.58,48h36.87v58.5l-1.54,30.34c13.19-12.42,28.8-23.81,50.31-23.81,33.66,0,48.38,22.78,48.38,62.46V274h-36.86V180.22c0-25.86-7.43-35.59-24.45-35.59-13.83,0-22.91,6.79-35.84,19.59V274h-36.87Z"/><path class="cls-1" d="M1200.7,231.8c0-33.66,27.91-51.2,92.42-58.11-.51-16.9-7.3-31-28.54-31-15.62,0-30.34,7-44.16,15.49l-13.57-24.57c17.28-10.88,39.55-20.61,64.51-20.61,39.3,0,58.63,24.19,58.63,68V274h-30.21l-2.82-17.4h-1c-14.08,12-30.21,21.24-48.77,21.24C1219.65,277.88,1200.7,259.2,1200.7,231.8Zm92.42.13V196.6c-42.62,5.38-56.83,16.52-56.83,32.39,0,13.89,9.47,20,22.65,20C1271.74,249,1281.47,242.68,1293.12,231.93Z"/></g></g></svg>