<svg xmlns="http://www.w3.org/2000/svg" viewBox="0 0 1256.03 331.5"><defs><style>.cls-1{fill:#fff;}</style></defs><title>Asset 30</title><g id="Layer_2" data-name="Layer 2"><g id="Layer_1-2" data-name="Layer 1"><path class="cls-1" d="M260,40V260H40V40H260M276.61,0H23.39A23.39,23.39,0,0,0,0,23.39V276.61A23.39,23.39,0,0,0,23.39,300H276.61A23.39,23.39,0,0,0,300,276.61V23.39A23.39,23.39,0,0,0,276.61,0Z"/><rect class="cls-1" x="85.63" y="81.63" width="249.75" height="249.75" rx="23.48" ry="23.48"/><path class="cls-1" d="M311.9,81.75a23.38,23.38,0,0,1,23.35,23.35V307.9a23.38,23.38,0,0,1-23.35,23.35H109.1A23.38,23.38,0,0,1,85.75,307.9V105.1A23.38,23.38,0,0,1,109.1,81.75H311.9m0-.25H109.1a23.61,23.61,0,0,0-23.6,23.6V307.9a23.61,23.61,0,0,0,23.6,23.6H311.9a23.61,23.61,0,0,0,23.6-23.6V105.1a23.61,23.61,0,0,0-23.6-23.6Z"/><path class="cls-1" d="M384.57,66h32.19L457,178.17c5.05,14.35,9.87,29.17,14.92,43.76h1.28c5.06-14.59,9.47-29.41,14.53-43.76L527.53,66h32.19V276H534.88V160.33c0-18.29,2-43.53,3.4-62.11H537l-16.68,47.9L480.77,254.77H463.06L423.3,146.12l-16.64-47.9h-1.28c1.34,18.58,3.4,43.82,3.4,62.11V276H384.57Z"/><path class="cls-1" d="M592.19,235.59c0-33.89,29.24-50.83,95.54-58-.07-20-6.7-39.29-32.11-39.29-18,0-34.2,8.52-46.39,16.67l-10.3-18c14.31-9.39,36.14-20.31,61.1-20.31,38,0,54,25.23,54,64V276H692.31l-2.23-18.59h-.87c-14.82,12.33-32.14,22.43-51.44,22.43C611.73,279.81,592.19,263.65,592.19,235.59ZM687.73,238v-43.2c-52.13,6.27-69.75,19-69.75,38.92,0,17.67,12,24.87,27.26,24.87C660.26,258.61,672.67,251.29,687.73,238Z"/><path class="cls-1" d="M754.89,227.88v-86H731.75V121.94l24.32-1.52,3.16-43.62h22v43.62h42.14v21.44H781.21v86.48c0,19,6.13,30,24,30,5.53,0,12.67-2.09,17.73-4.18l5.08,19.86c-8.72,3-19.15,5.76-28.86,5.76C766.1,279.81,754.89,258.83,754.89,227.88Z"/><path class="cls-1" d="M834.64,198.4c0-51.91,35.06-81.82,74.84-81.82,20.42,0,34.56,8.42,45.51,18.26l-13.47,17.4c-9.06-8.19-18.63-13.75-30.86-13.75-28.17,0-48.82,24.26-48.82,59.91s19.51,59.5,48.11,59.5c14.22,0,26.82-6.91,36.53-15.5L957.89,260c-14,12.46-31.63,19.77-50.29,19.77C866.2,279.81,834.64,249.9,834.64,198.4Z"/><path class="cls-1" d="M982.7,48H1009v62.36l-.94,32c14.52-14,30.28-25.74,51.64-25.74,32.77,0,47.49,21.15,47.49,60.83V276h-26.32V180.81c0-29-8.76-41.37-29.35-41.37-15.9,0-26.92,8.12-42.52,23.89V276H982.7Z"/><path class="cls-1" d="M1134.17,235.59c0-33.89,29.24-50.83,95.54-58-.07-20-6.7-39.29-32.11-39.29-18,0-34.2,8.52-46.39,16.67l-10.3-18c14.31-9.39,36.14-20.31,61.1-20.31,38,0,54,25.23,54,64V276h-21.74l-2.23-18.59h-.87c-14.82,12.33-32.14,22.43-51.44,22.43C1153.71,279.81,1134.17,263.65,1134.17,235.59Zm95.54,2.43v-43.2c-52.13,6.27-69.75,19-69.75,38.92,0,17.67,12,24.87,27.26,24.87C1202.24,258.61,1214.65,251.29,1229.71,238Z"/></g></g></svg>