<svg xmlns="http://www.w3.org/2000/svg" xmlns:xlink="http://www.w3.org/1999/xlink" viewBox="0 0 334.5 331.5"><defs><style>.cls-1{fill:url(#linear-gradient);}.cls-2{fill:url(#New_Gradient_Swatch_1);}.cls-3{fill:url(#linear-gradient-2);}</style><linearGradient id="linear-gradient" x1="248.17" y1="320.04" x2="51.83" y2="-20.04" gradientUnits="userSpaceOnUse"><stop offset="0" stop-color="#fff"/><stop offset="0" stop-color="#fbfbfc"/><stop offset="0" stop-color="#d2d3de"/><stop offset="0" stop-color="#adafc3"/><stop offset="0" stop-color="#8d8fac"/><stop offset="0" stop-color="#717598"/><stop offset="0" stop-color="#5b5f88"/><stop offset="0" stop-color="#4a4f7c"/><stop offset="0" stop-color="#3f4373"/><stop offset="0" stop-color="#383d6e"/><stop offset="0" stop-color="#363b6d"/><stop offset="0.2" stop-color="#4a366a"/><stop offset="0.59" stop-color="#7d2a61"/><stop offset="0.65" stop-color="#852860"/><stop offset="0.7" stop-color="#942954"/><stop offset="0.9" stop-color="#d12f26"/><stop offset="1" stop-color="#e83114"/></linearGradient><linearGradient id="New_Gradient_Swatch_1" x1="290.56" y1="346.9" x2="128.44" y2="66.1" gradientUnits="userSpaceOnUse"><stop offset="0" stop-color="#fff"/><stop offset="0" stop-color="#fbfbfc"/><stop offset="0" stop-color="#d2d3de"/><stop offset="0" stop-color="#adafc3"/><stop offset="0" stop-color="#8d8fac"/><stop offset="0" stop-color="#717598"/><stop offset="0" stop-color="#5b5f88"/><stop offset="0" stop-color="#4a4f7c"/><stop offset="0" stop-color="#3f4373"/><stop offset="0" stop-color="#383d6e"/><stop offset="0" stop-color="#363b6d"/><stop offset="0.14" stop-color="#4a366a"/><stop offset="0.42" stop-color="#7d2a61"/><stop offset="0.47" stop-color="#852860"/><stop offset="0.54" stop-color="#942954"/><stop offset="0.85" stop-color="#d12f26"/><stop offset="1" stop-color="#e83114"/></linearGradient><linearGradient id="linear-gradient-2" x1="209.5" y1="331.5" x2="209.5" y2="81.5" gradientUnits="userSpaceOnUse"><stop offset="0" stop-color="#fff"/><stop offset="0" stop-color="#45001f"/><stop offset="1" stop-color="#e94f37"/></linearGradient></defs><title>Asset 35</title><g id="Layer_2" data-name="Layer 2"><g id="Layer_1-2" data-name="Layer 1"><path class="cls-1" d="M260,40V260H40V40H260M276.61,0H23.39A23.39,23.39,0,0,0,0,23.39V276.61A23.39,23.39,0,0,0,23.39,300H276.61A23.39,23.39,0,0,0,300,276.61V23.39A23.39,23.39,0,0,0,276.61,0Z"/><rect class="cls-2" x="84.5" y="81.5" width="250" height="250" rx="23.6" ry="23.6"/><path class="cls-3" d="M310.9,81.75a23.38,23.38,0,0,1,23.35,23.35V307.9a23.38,23.38,0,0,1-23.35,23.35H108.1A23.38,23.38,0,0,1,84.75,307.9V105.1A23.38,23.38,0,0,1,108.1,81.75H310.9m0-.25H108.1a23.61,23.61,0,0,0-23.6,23.6V307.9a23.61,23.61,0,0,0,23.6,23.6H310.9a23.61,23.61,0,0,0,23.6-23.6V105.1a23.61,23.61,0,0,0-23.6-23.6Z"/></g></g></svg>