<svg xmlns="http://www.w3.org/2000/svg" xmlns:xlink="http://www.w3.org/1999/xlink" viewBox="0 0 335.5 331.5"><defs><style>.cls-1{fill:url(#linear-gradient);}.cls-2{fill:url(#linear-gradient-2);}.cls-3{fill:url(#linear-gradient-3);}</style><linearGradient id="linear-gradient" x1="248.17" y1="320.04" x2="51.83" y2="-20.04" gradientUnits="userSpaceOnUse"><stop offset="0" stop-color="#fff"/><stop offset="0" stop-color="#4b4e6d"/><stop offset="0.12" stop-color="#524e6b"/><stop offset="0.3" stop-color="#664e64"/><stop offset="0.51" stop-color="#864e59"/><stop offset="0.75" stop-color="#b24f4a"/><stop offset="1" stop-color="#e94f37"/></linearGradient><linearGradient id="linear-gradient-2" x1="291.56" y1="346.9" x2="129.44" y2="66.1" gradientUnits="userSpaceOnUse"><stop offset="0" stop-color="#fff"/><stop offset="0" stop-color="#4b4e6d"/><stop offset="0.12" stop-color="#554e69"/><stop offset="0.34" stop-color="#714e60"/><stop offset="0.61" stop-color="#9e4f50"/><stop offset="0.94" stop-color="#dc4f3b"/><stop offset="1" stop-color="#e94f37"/></linearGradient><linearGradient id="linear-gradient-3" x1="210.5" y1="331.5" x2="210.5" y2="81.5" gradientUnits="userSpaceOnUse"><stop offset="0" stop-color="#fff"/><stop offset="0" stop-color="#4b4e6d"/><stop offset="1" stop-color="#e94f37"/></linearGradient></defs><title>Asset 24</title><g id="Layer_2" data-name="Layer 2"><g id="Layer_1-2" data-name="Layer 1"><path class="cls-1" d="M260,40V260H40V40H260M276.61,0H23.39A23.39,23.39,0,0,0,0,23.39V276.61A23.39,23.39,0,0,0,23.39,300H276.61A23.39,23.39,0,0,0,300,276.61V23.39A23.39,23.39,0,0,0,276.61,0Z"/><rect class="cls-2" x="85.5" y="81.5" width="250" height="250" rx="23.6" ry="23.6"/><path class="cls-3" d="M311.9,81.75a23.38,23.38,0,0,1,23.35,23.35V307.9a23.38,23.38,0,0,1-23.35,23.35H109.1A23.38,23.38,0,0,1,85.75,307.9V105.1A23.38,23.38,0,0,1,109.1,81.75H311.9m0-.25H109.1a23.61,23.61,0,0,0-23.6,23.6V307.9a23.61,23.61,0,0,0,23.6,23.6H311.9a23.61,23.61,0,0,0,23.6-23.6V105.1a23.61,23.61,0,0,0-23.6-23.6Z"/></g></g></svg>