<svg xmlns="http://www.w3.org/2000/svg" viewBox="0 0 41 40"><defs><style>.cls-1{fill:#776876;}.cls-2{fill:#191847;}.cls-3{fill:#b28b67;}</style></defs><title>test</title><g id="Layer_2" data-name="Layer 2"><g id="Layer_1-2" data-name="Layer 1"><rect class="cls-1" x="1" width="40" height="40" rx="20" ry="20"/><g id="Head_Front_Long" data-name="Head/Front/Long"><path id="Hair-Back" class="cls-2" d="M20.18,18.62C21.36,23,22.9,32.68,21.33,34.21h-10v-.06a7.34,7.34,0,0,1-6.56-7.28V19.71a7.35,7.35,0,0,1,7.38-7.32h.69A7.36,7.36,0,0,1,20.18,18.62Z"/><g id="Head"><path class="cls-3" d="M8.67,25.5A9.18,9.18,0,0,1,6.2,18.87c.52-7.29,10.75-5.69,12.74-2s1.75,13-.82,13.68c-1,.26-3.21-.38-5.44-1.71l1.4,9.8H5.84Z"/></g><path id="Hair-Front" class="cls-2" d="M10.9,24.27c.38,4.05.23,8.67-.9,9.77H0c-.55-9.57,4.81-5.86,4.81-14.87.33-.33.65-.65,1-.92V18q2.58-5.25,6.56-5.25c4,0,5.23,1.83,6.3,3.39-.8,2.72-3.9,3.13-6.65,4.82a1.91,1.91,0,0,0-1.19-.42,1.88,1.88,0,1,0,0,3.75Z"/></g><g id="Head_Front_Short-Beard" data-name="Head/Front/Short-Beard"><g id="Head-2" data-name="Head"><path class="cls-3" d="M35.72,22.93a9.49,9.49,0,0,0,2.82-7.11C38,8,26.27,9.73,24,13.67s-2,14,.93,14.66c1.17.28,3.67-.41,6.21-1.83L29.54,37H39Z"/></g><path id="Hair" class="cls-2" d="M30.67,16.69c-.36,4.67-1.32,7-2.86,7-2.32,0-4.29-1.37-5.3-1.37-.75,0-.58.86-.09,1.5s2.38,1,2.38,1.86-1.56.19-1.56.67c0,.81-.27,2.32,1.23,2.32s5.86-.52,6.61-2.61q.72-2,.93-8.41l.28,0a2.27,2.27,0,0,1,2.35,2.19,2.11,2.11,0,0,1-.71,1.57c.55.72,1.16,1.46,1.86,2.23a7,7,0,0,0,2-9.89,5.68,5.68,0,0,0-4.22-3.6,7.28,7.28,0,0,0-4.48-.31,15.3,15.3,0,0,0-5.67,1.41c0,2.33.49,3,4.63,3A7.47,7.47,0,0,1,30.67,16.69Z"/></g></g></g></svg>